<svg xmlns="http://www.w3.org/2000/svg"  viewBox="0 0 50 50" width="112px" height="112px"><path d="M 0 17 L 0 33 L 16 33 L 16 17 Z M 17 17 L 17 33 L 33 33 L 33 17 Z M 34 17 L 34 33.03125 L 49.9375 33.03125 L 49.9375 17 Z M 2 19 L 14 19 L 14 31 L 2 31 Z M 19 19 L 31 19 L 31 31 L 19 31 Z M 36 19 L 47.9375 19 L 47.9375 31.03125 L 36 31.03125 Z M 42.40625 20.25 C 41.390625 20.285156 40.84375 20.46875 40.84375 20.46875 C 37.1875 21.601563 37.3125 25.03125 37.3125 25.03125 C 37.417969 28.339844 40.15625 29.34375 40.15625 29.34375 C 43.417969 30.640625 46.21875 28.9375 46.21875 28.9375 L 46.21875 27.15625 C 44.121094 28.507813 42.59375 28.3125 42.59375 28.3125 C 38.90625 28.132813 39.03125 25.03125 39.03125 25.03125 C 39.1875 21.632813 42.625 21.6875 42.625 21.6875 C 44.472656 21.707031 46.15625 22.75 46.15625 22.75 L 46.15625 21.03125 C 44.640625 20.394531 43.5625 20.28125 43.5625 20.28125 C 43.125 20.238281 42.746094 20.238281 42.40625 20.25 Z M 4.625 20.34375 L 4.625 29.65625 L 8.375 29.65625 C 8.375 29.65625 11.5 29.671875 11.5 27.03125 C 11.5 27.03125 11.578125 25.25 9.46875 24.71875 C 9.46875 24.71875 10.667969 24.199219 10.65625 22.84375 C 10.65625 22.84375 10.820313 20.613281 7.875 20.34375 Z M 21.625 20.34375 L 21.625 29.65625 L 25.375 29.65625 C 25.375 29.65625 28.5 29.671875 28.5 27.03125 C 28.5 27.03125 28.578125 25.25 26.46875 24.71875 C 26.46875 24.71875 27.667969 24.199219 27.65625 22.84375 C 27.65625 22.84375 27.820313 20.613281 24.875 20.34375 Z M 6.28125 21.78125 L 7.625 21.78125 C 9.011719 21.855469 8.9375 22.90625 8.9375 22.90625 C 8.9375 24.191406 7.40625 24.1875 7.40625 24.1875 L 6.28125 24.1875 Z M 23.28125 21.78125 L 24.625 21.78125 C 26.011719 21.855469 25.9375 22.90625 25.9375 22.90625 C 25.9375 24.191406 24.40625 24.1875 24.40625 24.1875 L 23.28125 24.1875 Z M 6.28125 25.6875 L 8.03125 25.6875 C 9.835938 25.675781 9.78125 26.90625 9.78125 26.90625 C 9.78125 28.316406 8.03125 28.21875 8.03125 28.21875 L 6.28125 28.21875 Z M 23.28125 25.6875 L 25.03125 25.6875 C 26.835938 25.675781 26.78125 26.90625 26.78125 26.90625 C 26.78125 28.316406 25.03125 28.21875 25.03125 28.21875 L 23.28125 28.21875 Z"/></svg>